<svg width="22" height="24" viewBox="0 0 22 24" fill="none" xmlns="http://www.w3.org/2000/svg">
<path d="M20.8766 15.6126L20.0864 15.0821C18.5589 14.0716 17.5844 12.4547 17.4 10.6863L17.1366 7.80632C16.8996 5.22947 14.9506 3.18316 12.4222 2.60211V1.36421C12.4222 0.606316 11.7901 0 11 0C10.2099 0 9.57779 0.606316 9.57779 1.36421V2.60211C7.04939 3.18316 5.10042 5.22947 4.86339 7.80632L4.60001 10.6863C4.44199 12.4547 3.44116 14.0716 1.91359 15.0821L1.12347 15.6126C0.623056 15.9411 0.333344 16.4968 0.333344 17.0779V18.1389C0.333344 18.5684 0.67573 18.8968 1.12347 18.8968H20.8766C21.3243 18.8968 21.6667 18.5684 21.6667 18.1389V17.0779C21.6667 16.4968 21.377 15.9411 20.8766 15.6126Z" fill="white"/>
<path d="M11 24C12.8963 24 14.4239 22.5348 14.4239 20.7158H7.57614C7.57614 22.5348 9.10371 24 11 24Z" fill="white"/>
</svg>
