<svg width="19" height="14" viewBox="0 0 19 14" fill="none" xmlns="http://www.w3.org/2000/svg">
<path d="M6.71429 0C6.00941 0 5.42857 0.574974 5.42857 1.27273V2.54545H1.35714C0.882286 2.54545 0.5 2.92388 0.5 3.39394V4.43466C0.558435 4.48382 0.766524 4.65916 0.767857 4.66004C2.71724 6.18253 5.90059 7.21212 9.5 7.21212C13.0994 7.21212 16.2828 6.18253 18.2321 4.66004C18.2335 4.65916 18.4416 4.48382 18.5 4.43466V3.39394C18.5 2.92388 18.1177 2.54545 17.6429 2.54545H13.5714V1.27273C13.5714 0.574974 12.9906 0 12.2857 0H6.71429ZM6.71429 0.848485H12.2857C12.5306 0.848485 12.7143 1.03036 12.7143 1.27273V2.54545H6.28571V1.27273C6.28571 1.03036 6.46944 0.848485 6.71429 0.848485ZM0.5 5.52841V13.1515C0.5 13.6216 0.882286 14 1.35714 14H17.6429C18.1177 14 18.5 13.6216 18.5 13.1515V5.52841C16.6448 6.87455 13.9982 7.77342 11 8.00095V8.69697C11 8.932 10.8089 9.12121 10.5714 9.12121H8.42857C8.19114 9.12121 8 8.932 8 8.69697V8.00095C5.00182 7.77342 2.35523 6.87456 0.5 5.52841Z" fill="#BFD2DF"/>
</svg>
