<svg width="32" height="32" viewBox="0 0 32 32" fill="none" xmlns="http://www.w3.org/2000/svg">
<path d="M8.05792 4.94262C7.9754 4.54922 7.61779 4.32442 7.23267 4.38062C6.84755 4.46492 6.59997 4.83022 6.6825 5.22362L11.579 28.7714C11.6615 29.1086 11.9366 29.3334 12.2667 29.3334C12.3217 29.3334 12.3768 29.3334 12.4043 29.3053C12.7894 29.221 13.037 28.8557 12.9544 28.4623L8.05792 4.94262Z" fill="white"/>
<path d="M23.1052 2.66675L22.2799 3.08825C20.2168 4.15605 18.4837 4.07175 16.6682 4.01555C14.5775 3.93125 12.3768 3.84695 9.79105 5.56105L9.37842 5.84205L11.6066 16.6043L12.4594 16.0423C14.6876 14.5811 16.5581 14.6373 18.5388 14.7216C20.4643 14.7778 22.445 14.8621 24.8382 13.6538L25.3334 13.4009L23.1052 2.66675Z" fill="white"/>
</svg>
