<svg width="24" height="24" viewBox="0 0 24 24" fill="none" xmlns="http://www.w3.org/2000/svg">
<path d="M11.8699 16.4038V12.9211C11.8699 11.4322 13.1193 10.2208 14.6812 10.2208H22.8287V6.71293C22.8287 5.98107 22.204 5.35016 21.4231 5.35016H4.13884C3.38396 5.35016 2.78526 4.74448 2.78526 4.03785C2.78526 3.33123 3.40999 2.72555 4.13884 2.72555H21.4231C22.1779 2.72555 22.8287 2.11987 22.8287 1.36278C22.8287 0.630915 22.204 0 21.4231 0H4.13884C1.84816 0 0 1.81703 0 4.03785V20.5173C0 22.4353 1.61389 24 3.5922 24H19.2625C21.2408 24 22.8547 22.4353 22.8547 20.5173V19.0789H14.6812C13.1454 19.1041 11.8699 17.8927 11.8699 16.4038Z" fill="white"/>
<path d="M22.8808 11.8359H14.6812C14.0565 11.8359 13.5619 12.3154 13.5619 12.9211V16.3785C13.5619 16.9842 14.0565 17.4637 14.6812 17.4637H22.8808C23.5055 17.4637 24.0001 16.9842 24.0001 16.3785V12.9211C24.0001 12.3407 23.5055 11.8359 22.8808 11.8359ZM21.319 15.8486C20.6422 15.8486 20.0955 15.3186 20.0955 14.6624C20.0955 14.0063 20.6422 13.4763 21.319 13.4763C21.9958 13.4763 22.5424 14.0063 22.5424 14.6624C22.5424 15.3186 21.9958 15.8486 21.319 15.8486Z" fill="white"/>
</svg>
