<svg width="12" height="11" viewBox="0 0 12 11" fill="none" xmlns="http://www.w3.org/2000/svg">
<path d="M10.5117 4.51164L6.98833 4.51178V0.988422C6.98833 0.443451 6.54489 0 6.00007 0C5.45511 0 5.01167 0.443451 5.01167 0.988422V4.51164L1.4884 4.51178C0.94344 4.51178 0.5 4.95523 0.5 5.5002C0.5 6.04517 0.94344 6.48849 1.4884 6.48849L5.01167 6.48836V10.0117C5.01167 10.5567 5.45511 11 6.00007 11C6.54489 11 6.98833 10.5567 6.98833 10.0117V6.48836H10.5117C11.0566 6.48836 11.5 6.0449 11.5 5.49993C11.5 4.95496 11.0566 4.51164 10.5117 4.51164Z" fill="#60BCE3"/>
</svg>
