<svg width="16" height="22" viewBox="0 0 16 22" fill="none" xmlns="http://www.w3.org/2000/svg">
<path d="M9.22433 8.34564C11.1441 8.34564 12.7127 6.79242 12.7127 4.89147V3.45417C12.7127 1.55322 11.1441 0 9.22433 0C7.30456 0 5.73596 1.55322 5.73596 3.45417V4.89147C5.73596 6.79242 7.30456 8.34564 9.22433 8.34564Z" fill="#BFD2DF"/>
<path d="M15.9669 15.3469L15.1474 11.7305C14.7729 10.0613 13.2745 8.87903 11.542 8.87903C11.3313 8.87903 11.1206 8.99494 11.0035 9.15722L9.59883 11.1741C9.41153 11.4291 9.03694 11.4291 8.84965 11.1741L7.44493 9.15722C7.32787 8.97176 7.11717 8.87903 6.90646 8.87903C5.19739 8.87903 3.69903 10.0613 3.30103 11.7305C3.34785 11.7305 3.39467 11.7073 3.4415 11.7073C6.34457 11.7073 8.68576 14.0487 8.68576 16.9233H14.6792C15.522 16.9233 16.1542 16.1583 15.9669 15.3469Z" fill="#BFD2DF"/>
<path d="M6.46168 18.5923C6.74263 18.0823 6.92992 17.5259 6.92992 16.9C6.92992 14.999 5.36132 13.469 3.46496 13.469C1.5686 13.469 0 15.0222 0 16.9C0 18.7777 1.5686 20.331 3.46496 20.331C4.09708 20.331 4.65897 20.1455 5.17403 19.8673L7.04698 21.7219C7.23427 21.9074 7.46839 22.0001 7.70251 22.0001C7.93663 22.0001 8.17075 21.9074 8.35804 21.7219C8.70922 21.3742 8.70922 20.7946 8.35804 20.4237L6.46168 18.5923ZM1.82613 16.9232C1.82613 16.0422 2.5519 15.3236 3.44155 15.3236C4.3312 15.3236 5.05697 16.0422 5.05697 16.9232C5.05697 17.8041 4.3312 18.5227 3.44155 18.5227C2.5519 18.5227 1.82613 17.8041 1.82613 16.9232Z" fill="#BFD2DF"/>
</svg>
