<svg width="19" height="20" viewBox="0 0 19 20" fill="none" xmlns="http://www.w3.org/2000/svg">
<path fill-rule="evenodd" clip-rule="evenodd" d="M18.7818 10.3973C18.7819 10.3773 18.7819 10.3573 18.7819 10.3373C18.7819 5.13285 14.6669 0.913818 9.59074 0.913818C6.97157 0.913818 4.60828 2.03705 2.93411 3.83932L3.66682 3.20689H3.98504C4.03347 3.20663 4.03662 3.24955 4.03971 3.29155C4.04243 3.32869 4.04511 3.36512 4.07898 3.37039C4.14205 3.53072 4.21349 3.70447 4.29812 3.89915C4.3258 3.99829 4.35605 4.10463 4.38855 4.21424C4.22121 4.37653 4.05645 4.55191 3.89587 4.73874C3.86241 4.83069 3.82958 4.92394 3.79772 5.02046C3.68419 5.0853 3.5737 5.15182 3.46343 5.21821L3.43699 5.23412C3.35944 5.49654 3.288 5.77367 3.22139 6.06161C3.08863 6.04224 2.9572 6.02396 2.83003 6.00627L2.79275 6.00108C2.69525 5.42717 2.5942 4.47306 2.5942 4.47306C2.5942 4.47306 1.78327 5.51781 1.46501 6.10447C1.48254 6.08956 1.49963 6.07473 1.51666 6.05996L1.51667 6.05995C1.54558 6.03487 1.5743 6.00996 1.60467 5.98505C1.72824 6.61948 1.87659 7.31511 2.07836 8.07192C1.67289 8.33761 1.30894 8.60166 0.994862 8.85622C0.784455 9.05361 0.601263 9.24823 0.441029 9.43601C0.413577 9.73265 0.399536 10.0333 0.399536 10.3373C0.399536 11.2606 0.529035 12.1528 0.770426 12.996C0.891824 13.0381 1.02122 13.0799 1.16027 13.1209C1.46244 13.472 1.80676 13.828 2.18552 14.1798C2.26822 14.4314 2.35607 14.6787 2.44843 14.9228C2.94013 15.233 3.47754 15.535 4.03747 15.8184C3.86852 16.3507 3.73819 16.8157 3.64069 17.2165C3.53183 17.2199 3.42464 17.223 3.31863 17.2257C4.96097 18.7983 7.16623 19.7608 9.59074 19.7608C14.5039 19.7608 18.5166 15.8084 18.7693 10.8356C18.757 10.7869 18.7456 10.7385 18.7341 10.69C18.7184 10.6234 18.7027 10.5567 18.6844 10.4886C18.4634 10.7612 18.2056 11.0501 17.9157 11.3508C17.9119 11.4845 17.9072 11.6189 17.9025 11.7524L17.9025 11.7525L17.8976 11.8936C17.7879 12.0507 17.675 12.2067 17.5559 12.3667C17.4429 11.8956 17.3152 11.4061 17.1668 10.9071C17.0021 10.6411 16.8254 10.3702 16.6381 10.0947C16.2014 9.98408 15.7278 9.87185 15.2293 9.75602C15.0935 9.62308 14.9533 9.49071 14.8115 9.35682L14.7772 9.32444L14.7468 9.34318C14.683 9.3825 14.6203 9.42116 14.5564 9.45957C14.6729 9.74555 14.7868 10.0315 14.8946 10.3185C15.0629 10.2255 15.2303 10.1316 15.3905 10.0404C15.6097 10.2314 15.8211 10.4202 16.0238 10.6044C15.4233 11.0314 14.7607 11.4807 14.0631 11.9342C13.7307 11.1931 13.3658 10.4202 12.9818 9.65262C12.9119 9.66331 12.8418 9.67502 12.7723 9.68663L12.7447 9.69123C13.1389 10.6051 13.5186 11.5271 13.8481 12.4018C14.2121 12.2149 14.5657 12.0281 14.9085 11.8449C14.792 12.2578 14.6658 12.6694 14.5323 13.0719C14.1699 13.4174 13.7957 13.7577 13.4185 14.0901C13.4365 14.558 13.4462 15.0053 13.4443 15.4182C13.2348 15.5648 13.0259 15.7068 12.8155 15.8445C12.3859 16.4306 11.9614 16.9374 11.5585 17.3297C11.2203 17.3742 10.8847 17.4154 10.551 17.455C10.2997 17.0552 10.0014 16.5084 9.67698 15.8596L9.70495 15.7515C9.77376 15.4858 9.84645 15.205 9.91865 14.9088C9.71399 14.3244 9.49742 13.6857 9.27859 13.0238C8.54425 13.0692 7.81795 13.1088 7.10774 13.1412C6.69745 12.7483 6.29166 12.3474 5.89682 11.9447C5.9483 11.2991 6.01331 10.6395 6.08796 9.98342C6.4738 9.49393 6.87219 9.00444 7.27282 8.52378C8.02841 8.38178 8.8004 8.24403 9.56725 8.11315C9.60103 8.25281 9.63418 8.39326 9.66748 8.53428L9.71141 8.7201C9.93156 8.86301 10.1516 9.00799 10.3725 9.15359L10.3729 9.15387L10.3739 9.15451L10.3743 9.15478L10.6588 9.34211C10.7224 9.2526 10.7848 9.16335 10.8468 9.07475L10.8468 9.07471L10.8473 9.07397L10.8478 9.07329C10.9039 8.993 10.9597 8.91324 11.0157 8.8343C11.4964 8.9606 11.9708 9.08853 12.4383 9.21745L12.4978 9.18068C12.5966 9.11953 12.6945 9.05892 12.793 8.99921C12.823 8.88797 12.8513 8.77775 12.8795 8.66838L12.8796 8.6681L12.8798 8.66738L12.8798 8.6671L12.8799 8.66662L12.8803 8.66508C12.8972 8.59958 12.914 8.53439 12.931 8.46947L12.7769 8.44021C12.5108 8.38968 12.2409 8.33842 11.9691 8.28853C11.8597 8.10693 11.749 7.92566 11.6396 7.74669C11.5611 7.70873 11.4836 7.67012 11.4076 7.63086C11.3471 7.8527 11.285 8.07912 11.2213 8.30783C11.0729 8.12362 10.9252 7.94202 10.7769 7.76239L10.7776 7.74841L10.7776 7.74828C10.7851 7.60391 10.7925 7.46135 10.7968 7.32002C10.6028 7.17212 10.4094 7.02717 10.2186 6.88517L10.1816 6.8678L10.1815 6.86776L10.1808 6.86743L10.1807 6.86736C10.0781 6.81912 9.97676 6.77146 9.87617 6.72484C9.88136 6.78883 9.88579 6.85352 9.89026 6.9187L9.89028 6.91898L9.89028 6.91904L9.89029 6.91911C9.89552 6.99545 9.9008 7.07247 9.90739 7.14988L9.99018 7.20352C10.2021 7.34086 10.4168 7.4799 10.6311 7.62202C10.5317 7.73287 10.432 7.84608 10.3305 7.96113L10.3305 7.96122L10.3303 7.96145L10.3302 7.9615L10.2591 8.04215C10.0824 7.81311 9.90739 7.58865 9.73555 7.36942L9.66496 7.29149C9.56431 7.18032 9.46478 7.07038 9.36484 6.96239C9.07811 7.09654 8.78914 7.23593 8.50049 7.3763C8.29325 7.67994 8.08376 7.99209 7.87491 8.31045C7.5692 8.26661 7.26735 8.22472 6.96808 8.1835C6.9639 7.80525 6.96197 7.43585 6.96551 7.08247C7.34233 7.09818 7.72366 7.11585 8.11047 7.13679C7.99462 6.95094 7.8807 6.76836 7.76872 6.59135C7.70307 6.4464 7.63839 6.30439 7.57467 6.16762C7.86268 6.0783 8.15166 5.98963 8.43902 5.90521C8.60282 5.71838 8.7634 5.53875 8.92301 5.36664C8.98801 5.36258 9.05336 5.35826 9.11857 5.35395L9.11882 5.35394L9.11901 5.35392L9.11921 5.35391L9.11953 5.35389C9.18021 5.34988 9.24077 5.34587 9.3008 5.3421C9.27666 5.24656 9.25189 5.15265 9.22743 5.06234C9.27892 5.00897 9.32894 4.95773 9.37846 4.907L9.3787 4.90676L9.379 4.90644L9.4691 4.814C9.5296 4.9475 9.59074 5.08688 9.65188 5.23183C10.0023 5.2387 10.3524 5.24917 10.7009 5.26063L10.7702 5.10451L10.7702 5.10441L10.7704 5.10407L10.7705 5.10388C10.8345 4.95924 10.8959 4.82067 10.9565 4.68868C11.0355 4.70966 11.1153 4.731 11.1951 4.75234L11.3548 4.79502C11.2998 4.6684 11.2445 4.54831 11.1901 4.43347L11.2116 4.42901C11.398 4.39034 11.5784 4.35293 11.7593 4.31764C11.6914 4.26594 11.6232 4.21686 11.556 4.16876C11.3896 4.19592 11.2178 4.22537 11.0453 4.25645C10.9729 4.15469 10.9021 4.05817 10.8313 3.96688C10.8263 3.96688 10.8217 3.96662 10.8172 3.96637C10.8129 3.96613 10.8088 3.9659 10.8046 3.9659C10.8078 3.9587 10.8113 3.95281 10.8158 3.94561C10.7872 3.90798 10.7569 3.87101 10.7267 3.83698L10.7379 3.83231L10.7379 3.8323L10.7379 3.83229C10.7991 3.80671 10.86 3.78125 10.9201 3.75813C10.9709 3.67044 11.0115 3.60532 11.0572 3.53432C11.0277 3.53184 10.9978 3.52913 10.9679 3.52641L10.9678 3.52641L10.9676 3.52639C10.9346 3.52339 10.9013 3.52038 10.8683 3.51763C10.7788 3.57293 10.6865 3.63608 10.5925 3.70185C10.5166 3.80197 10.4371 3.91518 10.354 4.03592C10.4577 4.10528 10.5622 4.17563 10.6665 4.24925C10.5837 4.42106 10.4977 4.61035 10.4055 4.81308L10.3939 4.83854L10.2655 4.87608C10.1516 4.90936 10.0372 4.9428 9.92123 4.97727C9.83144 4.75707 9.74263 4.55257 9.65703 4.3641L9.5897 4.39102C9.43279 4.45373 9.27259 4.51776 9.1119 4.58529C9.05555 4.55977 8.9999 4.5354 8.94449 4.51114L8.94448 4.51113L8.85929 4.47371C8.87796 4.28688 8.89887 4.11412 8.91947 3.96066C9.07297 3.88868 9.22324 3.82291 9.36998 3.76074C9.49581 3.59682 9.61648 3.46136 9.72879 3.35731C10.0136 3.29841 10.2868 3.24999 10.5474 3.21072C11.21 3.24148 11.9 3.29056 12.5999 3.35011C13.5704 3.31674 14.7453 3.27387 15.2637 3.24835L15.6708 3.30123C17.5655 5.0399 18.7648 7.57336 18.7818 10.3973ZM7.547 4.11412C7.40637 4.2149 7.26221 4.32026 7.11836 4.43347C7.08876 4.54668 7.06044 4.66611 7.03276 4.79142C7.18562 4.78521 7.34008 4.77899 7.49454 4.77375C7.584 4.61604 7.67218 4.46488 7.75906 4.32287C7.7272 4.53097 7.69889 4.76165 7.67282 5.00966C7.89808 4.92819 8.1243 4.84737 8.34667 4.77015L8.35356 4.76264C8.41779 4.6926 8.48087 4.6238 8.54425 4.55715C8.33798 4.2378 8.14812 3.9623 7.98368 3.74144C7.84627 3.7915 7.70757 3.84582 7.56695 3.90111C7.55987 3.9695 7.55311 4.03952 7.547 4.11412ZM13.7557 16.4434L13.8929 16.4868C14.0949 16.1639 14.2916 15.8053 14.4856 15.4254C14.4779 15.2719 14.4692 15.1175 14.4563 14.9559C14.2079 15.143 13.955 15.3243 13.7024 15.4997C13.6505 15.8095 13.592 16.1034 13.5305 16.3717C13.6063 16.3961 13.6813 16.4198 13.7557 16.4434Z" fill="white"/>
</svg>
