<svg width="56" height="34" viewBox="0 0 56 34" fill="none" xmlns="http://www.w3.org/2000/svg">
<path d="M1.31672 19.4309C1.05255 19.4309 0.785803 19.35 0.554089 19.1823C-0.0388553 18.7518 -0.178012 17.9135 0.24428 17.3091C9.11755 4.59658 20.6894 0.0397778 27.9025 0.000139236C34.9892 -0.02705 44.5467 1.89034 55.741 17.2881C56.1742 17.884 56.0514 18.7253 55.4668 19.1669C54.8822 19.6085 54.0566 19.4833 53.624 18.8874C43.1956 4.54449 34.8006 2.63987 27.9169 2.68639C21.3264 2.72243 10.6872 6.98177 2.39141 18.8661C2.13463 19.2344 1.72873 19.4309 1.31672 19.4309Z" fill="white"/>
<path d="M28.4955 25.7535C22.4935 25.7535 17.6156 20.7814 17.6156 14.6701C17.6156 8.55858 22.4935 3.24407 28.4955 3.24407C34.4909 3.24407 39.3755 8.55858 39.3755 14.6701C39.3755 20.7814 34.4909 25.7535 28.4955 25.7535ZM47.0606 31.6443L39.238 23.6707C41.1772 21.2609 42.346 18.1744 42.346 14.81C42.346 7.09359 36.2032 0.496555 28.6331 0.496555C21.0563 0.496555 14.9202 7.09359 14.9202 14.81C14.9202 22.5268 21.0563 28.788 28.6331 28.788C31.9333 28.788 34.9549 27.6034 37.319 25.6268L45.1414 33.5941C45.6729 34.1353 46.5294 34.1353 47.0606 33.5941C47.5919 33.0592 47.5919 32.1792 47.0606 31.6443Z" fill="white"/>
</svg>
